<?xml version="1.0" standalone="no"?><!DOCTYPE svg PUBLIC "-//W3C//DTD SVG 1.1//EN" "http://www.w3.org/Graphics/SVG/1.1/DTD/svg11.dtd"><svg t="1642588607818" class="icon" viewBox="0 0 1024 1024" version="1.1" xmlns="http://www.w3.org/2000/svg" p-id="3223" xmlns:xlink="http://www.w3.org/1999/xlink" width="200" height="200"><defs><style type="text/css"></style></defs><path d="M836.266667 102.4H256a68.266667 68.266667 0 0 0-68.266667 68.266667v682.666666a68.266667 68.266667 0 0 0 68.266667 68.266667h580.266667a68.266667 68.266667 0 0 0 68.266666-68.266667V170.666667a68.266667 68.266667 0 0 0-68.266666-68.266667z m-580.266667 68.266667h580.266667v682.666666H256V170.666667z" fill="#444444" p-id="3224"></path><path d="M290.133333 315.733333a34.133333 34.133333 0 0 1 2.56 68.181334L290.133333 384H153.6a34.133333 34.133333 0 0 1-2.56-68.181333L153.6 315.733333h136.533333zM290.133333 640a34.133333 34.133333 0 0 1 2.56 68.181333L290.133333 708.266667H153.6a34.133333 34.133333 0 0 1-2.56-68.181334L153.6 640h136.533333z" fill="#444444" p-id="3225"></path><path d="M733.866667 375.466667v273.066666a34.133333 34.133333 0 0 1-34.133334 34.133334h-34.133333V341.333333h34.133333a34.133333 34.133333 0 0 1 34.133334 34.133334z" fill="#99BDDF" p-id="3226" data-spm-anchor-id="a313x.7781069.0.i2" class="selected"></path></svg>